<svg width="402" height="142" viewBox="0 0 402 142" fill="none" xmlns="http://www.w3.org/2000/svg">
<rect x="161" y="81" width="20" height="20" stroke="#0C0C0C"/>
<rect x="241" y="81" width="20" height="20" fill="#8B49F7" fill-opacity="0.3" stroke="#0C0C0C"/>
<rect x="1" y="21" width="20" height="20" fill="#8B49F7" fill-opacity="0.3" stroke="#0C0C0C"/>
<rect x="81" y="81" width="20" height="20" stroke="#0C0C0C"/>
<rect x="1" y="81" width="20" height="20" fill="#8B49F7" fill-opacity="0.3" stroke="#0C0C0C"/>
<rect x="321" y="21" width="20" height="20" fill="#8B49F7" fill-opacity="0.3" stroke="#0C0C0C"/>
<rect x="181" y="21" width="20" height="20" stroke="#0C0C0C"/>
<rect x="181" y="81" width="20" height="20" stroke="#0C0C0C"/>
<rect x="261" y="21" width="20" height="20" fill="#8B49F7" fill-opacity="0.3" stroke="#0C0C0C"/>
<rect x="261" y="81" width="20" height="20" fill="#8B49F7" fill-opacity="0.3" stroke="#0C0C0C"/>
<rect x="101" y="21" width="20" height="20" fill="#8B49F7" fill-opacity="0.3" stroke="#0C0C0C"/>
<rect x="101" y="81" width="20" height="20" fill="#8B49F7" fill-opacity="0.3" stroke="#0C0C0C"/>
<rect x="341" y="21" width="20" height="20" fill="#8B49F7" fill-opacity="0.3" stroke="#0C0C0C"/>
<rect x="341" y="81" width="20" height="20" fill="#8B49F7" fill-opacity="0.3" stroke="#0C0C0C"/>
<rect x="181" y="41" width="20" height="20" fill="#8B49F7" fill-opacity="0.3" stroke="#0C0C0C"/>
<rect x="181" y="101" width="20" height="20" fill="#8B49F7" fill-opacity="0.3" stroke="#0C0C0C"/>
<rect x="261" y="41" width="20" height="20" stroke="#0C0C0C"/>
<rect x="261" y="121" width="20" height="20" stroke="#0C0C0C"/>
<rect x="101" y="41" width="20" height="20" stroke="#0C0C0C"/>
<rect x="21" y="41" width="20" height="20" stroke="#0C0C0C"/>
<rect x="101" y="101" width="20" height="20" stroke="#0C0C0C"/>
<rect x="21" y="101" width="20" height="20" fill="#8B49F7" fill-opacity="0.3" stroke="#0C0C0C"/>
<rect x="341" y="41" width="20" height="20" fill="#8B49F7" fill-opacity="0.3" stroke="#0C0C0C"/>
<rect x="341" y="101" width="20" height="20" fill="#8B49F7" fill-opacity="0.3" stroke="#0C0C0C"/>
<rect x="161" y="41" width="20" height="20" stroke="#0C0C0C"/>
<rect x="241" y="41" width="20" height="20" fill="#8B49F7" fill-opacity="0.3" stroke="#0C0C0C"/>
<rect x="241" y="101" width="20" height="20" stroke="#0C0C0C"/>
<rect x="241" y="121" width="20" height="20" fill="#8B49F7" fill-opacity="0.3" stroke="#0C0C0C"/>
<rect x="81" y="41" width="20" height="20" fill="#8B49F7" fill-opacity="0.3" stroke="#0C0C0C"/>
<rect x="1" y="41" width="20" height="20" fill="#8B49F7" fill-opacity="0.3" stroke="#0C0C0C"/>
<rect x="81" y="101" width="20" height="20" stroke="#0C0C0C"/>
<rect x="1" y="101" width="20" height="20" fill="#8B49F7" fill-opacity="0.3" stroke="#0C0C0C"/>
<rect x="1" y="121" width="20" height="20" fill="#8B49F7" fill-opacity="0.3" stroke="#0C0C0C"/>
<rect x="321" y="101" width="20" height="20" fill="#8B49F7" fill-opacity="0.3" stroke="#0C0C0C"/>
<rect x="321" y="121" width="20" height="20" fill="#8B49F7" fill-opacity="0.3" stroke="#0C0C0C"/>
<rect x="201" y="101" width="20" height="20" stroke="#0C0C0C"/>
<rect x="281" y="41" width="20" height="20" fill="#8B49F7" fill-opacity="0.3" stroke="#0C0C0C"/>
<rect x="281" y="121" width="20" height="20" stroke="#0C0C0C"/>
<rect x="121" y="101" width="20" height="20" fill="#8B49F7" fill-opacity="0.3" stroke="#0C0C0C"/>
<rect x="121" y="121" width="20" height="20" fill="#8B49F7" fill-opacity="0.3" stroke="#0C0C0C"/>
<rect x="361" y="41" width="20" height="20" fill="#8B49F7" fill-opacity="0.3" stroke="#0C0C0C"/>
<rect x="361" y="101" width="20" height="20" fill="#8B49F7" fill-opacity="0.3" stroke="#0C0C0C"/>
<rect x="201" y="81" width="20" height="20" fill="#8B49F7" fill-opacity="0.3" stroke="#0C0C0C"/>
<rect x="281" y="21" width="20" height="20" stroke="#0C0C0C"/>
<rect x="121" y="81" width="20" height="20" stroke="#0C0C0C"/>
<rect x="361" y="21" width="20" height="20" fill="#8B49F7" fill-opacity="0.3" stroke="#0C0C0C"/>
<rect x="361" y="81" width="20" height="20" fill="#8B49F7" fill-opacity="0.3" stroke="#0C0C0C"/>
<rect x="221" y="21" width="20" height="20" stroke="#0C0C0C"/>
<rect x="301" y="81" width="20" height="20" fill="#8B49F7" fill-opacity="0.3" stroke="#0C0C0C"/>
<rect x="141" y="21" width="20" height="20" stroke="#0C0C0C"/>
<rect x="61" y="81" width="20" height="20" fill="#8B49F7" fill-opacity="0.3" stroke="#0C0C0C"/>
<rect x="381" y="21" width="20" height="20" fill="#8B49F7" fill-opacity="0.3" stroke="#0C0C0C"/>
<rect x="381" y="81" width="20" height="20" fill="#8B49F7" fill-opacity="0.3" stroke="#0C0C0C"/>
<rect x="221" y="41" width="20" height="20" fill="#8B49F7" fill-opacity="0.3" stroke="#0C0C0C"/>
<rect x="221" y="121" width="20" height="20" stroke="#0C0C0C"/>
<rect x="301" y="41" width="20" height="20" fill="#8B49F7" fill-opacity="0.3" stroke="#0C0C0C"/>
<rect x="301" y="101" width="20" height="20" stroke="#0C0C0C"/>
<rect x="301" y="121" width="20" height="20" fill="#8B49F7" fill-opacity="0.3" stroke="#0C0C0C"/>
<rect x="141" y="41" width="20" height="20" stroke="#0C0C0C"/>
<rect x="61" y="41" width="20" height="20" fill="#8B49F7" fill-opacity="0.3" stroke="#0C0C0C"/>
<rect x="141" y="121" width="20" height="20" stroke="#0C0C0C"/>
<rect x="381" y="41" width="20" height="20" fill="#8B49F7" fill-opacity="0.3" stroke="#0C0C0C"/>
<rect x="381" y="101" width="20" height="20" fill="#8B49F7" fill-opacity="0.3" stroke="#0C0C0C"/>
<rect x="221" y="1" width="20" height="20" fill="#8B49F7" fill-opacity="0.3" stroke="#0C0C0C"/>
<rect x="221" y="61" width="20" height="20" fill="#8B49F7" fill-opacity="0.3" stroke="#0C0C0C"/>
<rect x="301" y="61" width="20" height="20" stroke="#0C0C0C"/>
<rect x="141" y="1" width="20" height="20" fill="#8B49F7" fill-opacity="0.3" stroke="#0C0C0C"/>
<rect x="381" y="1" width="20" height="20" fill="#8B49F7" fill-opacity="0.3" stroke="#0C0C0C"/>
<rect x="381" y="61" width="20" height="20" fill="#8B49F7" fill-opacity="0.3" stroke="#0C0C0C"/>
<rect x="201" y="1" width="20" height="20" fill="#8B49F7" fill-opacity="0.3" stroke="#0C0C0C"/>
<rect x="201" y="61" width="20" height="20" stroke="#0C0C0C"/>
<rect x="281" y="1" width="20" height="20" fill="#8B49F7" fill-opacity="0.3" stroke="#0C0C0C"/>
<rect x="121" y="1" width="20" height="20" stroke="#0C0C0C"/>
<rect x="121" y="61" width="20" height="20" fill="#8B49F7" fill-opacity="0.3" stroke="#0C0C0C"/>
<rect x="41" y="61" width="20" height="20" fill="#8B49F7" fill-opacity="0.3" stroke="#0C0C0C"/>
<rect x="361" y="1" width="20" height="20" fill="#8B49F7" fill-opacity="0.3" stroke="#0C0C0C"/>
<rect x="361" y="61" width="20" height="20" fill="#8B49F7" fill-opacity="0.3" stroke="#0C0C0C"/>
<rect x="101" y="1" width="20" height="20" fill="#8B49F7" fill-opacity="0.3" stroke="#0C0C0C"/>
<rect x="21" y="1" width="20" height="20" fill="#8B49F7" fill-opacity="0.3" stroke="#0C0C0C"/>
<rect x="21" y="61" width="20" height="20" fill="#8B49F7" fill-opacity="0.3" stroke="#0C0C0C"/>
<rect x="341" y="1" width="20" height="20" fill="#8B49F7" fill-opacity="0.3" stroke="#0C0C0C"/>
<rect x="341" y="61" width="20" height="20" fill="#8B49F7" fill-opacity="0.3" stroke="#0C0C0C"/>
<rect x="81" y="1" width="20" height="20" fill="#8B49F7" fill-opacity="0.3" stroke="#0C0C0C"/>
<rect x="1" y="1" width="20" height="20" fill="#8B49F7" fill-opacity="0.3" stroke="#0C0C0C"/>
<rect x="1" y="61" width="20" height="20" fill="#8B49F7" fill-opacity="0.3" stroke="#0C0C0C"/>
<rect x="321" y="1" width="20" height="20" stroke="#0C0C0C"/>
<rect x="121" y="41" width="20" height="20" fill="#8B49F7" fill-opacity="0.3" stroke="#0C0C0C"/>
<rect x="61" y="1" width="20" height="20" fill="#8B49F7" fill-opacity="0.3" stroke="#0C0C0C"/>
<g filter="url(#filter0_f_2559_316)">
<rect x="241" y="61" width="20" height="20" fill="#8B49F7" fill-opacity="0.3"/>
<rect x="241" y="61" width="20" height="20" stroke="#0C0C0C"/>
</g>
<defs>
<filter id="filter0_f_2559_316" x="239.5" y="59.5" width="23" height="23" filterUnits="userSpaceOnUse" color-interpolation-filters="sRGB">
<feFlood flood-opacity="0" result="BackgroundImageFix"/>
<feBlend mode="normal" in="SourceGraphic" in2="BackgroundImageFix" result="shape"/>
<feGaussianBlur stdDeviation="0.5" result="effect1_foregroundBlur_2559_316"/>
</filter>
</defs>
</svg>
